<?xml version="1.0" standalone="no"?>
<!DOCTYPE svg PUBLIC "-//W3C//DTD SVG 20010904//EN"
 "http://www.w3.org/TR/2001/REC-SVG-20010904/DTD/svg10.dtd">
<svg version="1.0" xmlns="http://www.w3.org/2000/svg"
 width="507.000000pt" height="147.000000pt" viewBox="0 0 507.000000 147.000000"
 preserveAspectRatio="xMidYMid meet">

<g transform="translate(0.000000,147.000000) scale(0.100000,-0.100000)"
fill="#000000" stroke="none">
<path d="M30 730 l0 -720 2510 0 2510 0 0 720 0 720 -2510 0 -2510 0 0 -720z
m578 532 c18 -59 65 -117 127 -157 31 -20 108 -85 170 -146 108 -104 159 -139
205 -139 17 0 20 -6 20 -45 0 -62 17 -98 86 -179 100 -117 141 -175 183 -256
23 -43 41 -83 41 -89 0 -15 -146 40 -226 84 -53 30 -73 49 -113 109 -65 95
-147 168 -243 214 -81 39 -99 62 -48 62 62 0 62 89 0 112 -28 11 -135 143
-156 193 -22 53 -58 75 -121 75 -78 0 -125 30 -69 44 35 9 84 70 91 113 4 21
9 44 11 52 7 21 29 -3 42 -47z m3260 -350 c3 -65 5 -73 20 -66 9 4 35 9 57 12
62 6 79 -19 84 -124 2 -55 8 -87 17 -95 26 -21 14 -29 -42 -29 -50 0 -55 2
-48 18 4 9 10 49 12 88 4 76 -9 104 -48 104 -35 0 -53 -43 -48 -113 3 -34 8
-70 13 -79 6 -16 1 -18 -42 -18 -60 0 -68 6 -47 37 21 33 17 299 -5 312 -23
15 -1 32 37 29 l37 -3 3 -73z m322 -32 c0 -85 3 -110 13 -110 18 0 43 28 56
63 9 22 17 27 44 27 19 0 37 -3 40 -7 4 -4 -14 -25 -40 -48 -46 -41 -47 -43
-34 -68 8 -14 33 -45 57 -69 23 -23 40 -46 38 -50 -3 -5 -23 -8 -44 -8 -36 0
-42 4 -59 38 -10 20 -28 45 -39 56 -21 18 -21 18 -27 -7 -4 -14 -2 -35 5 -46
16 -31 5 -41 -44 -41 -48 0 -61 7 -45 26 6 7 13 74 16 148 5 116 4 139 -11
161 -22 34 -13 45 35 45 l39 0 0 -110z m-1869 84 c19 -23 -1 -49 -37 -49 -20
0 -30 6 -32 18 -8 40 43 63 69 31z m-667 -11 c-4 -10 -9 -47 -11 -83 l-4 -65
56 58 c36 38 55 66 55 82 0 23 4 25 43 25 24 0 46 -3 50 -6 3 -3 -21 -31 -53
-61 -33 -30 -62 -63 -65 -74 -8 -25 28 -83 98 -156 54 -58 51 -67 -19 -61 -33
3 -40 8 -63 50 -42 76 -77 115 -91 102 -11 -11 -11 -96 1 -134 3 -12 -9 -16
-58 -18 -35 -2 -63 0 -63 4 0 4 8 16 18 27 25 29 25 266 -1 294 -24 27 -13 33
56 33 53 0 58 -2 51 -17z m334 -105 c9 -9 18 -9 37 0 45 21 91 15 114 -14 17
-22 21 -41 21 -104 0 -57 4 -81 15 -90 27 -23 16 -31 -37 -28 -42 2 -52 6 -48
18 10 35 11 150 0 169 -14 28 -65 29 -80 2 -13 -25 -13 -158 0 -166 21 -13 -3
-25 -50 -25 -53 0 -68 11 -45 30 19 16 21 170 3 188 -10 10 -10 15 2 22 21 13
54 12 68 -2z m332 -92 c0 -80 3 -106 15 -116 27 -22 16 -30 -45 -30 -61 0 -72
8 -45 30 22 18 21 157 -1 181 -23 25 -9 39 37 39 l39 0 0 -104z m165 59 c3
-44 33 -125 45 -125 16 0 51 112 45 142 -6 27 -5 28 33 28 49 0 57 -8 33 -34
-11 -12 -36 -61 -56 -111 -37 -92 -57 -118 -80 -109 -7 3 -32 53 -55 110 -23
57 -49 108 -58 113 -27 15 -2 32 45 29 45 -3 45 -3 48 -43z m389 14 c28 -33
33 -61 14 -77 -7 -5 -43 -13 -80 -17 -62 -7 -68 -9 -68 -30 0 -47 50 -73 106
-55 44 15 57 5 26 -21 -78 -63 -202 -2 -202 99 0 79 52 131 132 132 40 0 50
-4 72 -31z m244 -6 c4 -39 -20 -46 -38 -12 -16 28 -75 24 -75 -6 0 -14 16 -28
57 -48 61 -31 82 -64 67 -105 -12 -32 -73 -56 -123 -48 -49 8 -66 21 -66 51 0
35 11 36 47 5 38 -33 51 -36 78 -16 27 19 13 41 -43 70 -58 30 -74 48 -74 83
0 44 35 64 106 61 61 -3 61 -3 64 -35z m270 25 c9 -9 18 -9 37 0 35 16 87 15
110 -2 17 -12 23 -12 47 0 29 15 76 18 94 6 23 -15 34 -53 34 -114 0 -42 5
-71 16 -87 21 -30 7 -43 -41 -39 l-38 3 2 82 c1 45 -3 91 -9 102 -14 27 -56
27 -70 2 -16 -31 -13 -146 5 -161 24 -20 7 -30 -51 -30 -54 0 -64 6 -42 28 15
15 14 160 -1 175 -7 7 -20 8 -38 1 -34 -12 -47 -58 -39 -141 l5 -63 -43 0
c-52 0 -60 6 -41 34 18 25 20 134 3 171 -10 22 -9 28 3 36 19 12 43 11 57 -3z
m-134 -190 c22 -35 -27 -74 -59 -48 -20 17 -19 47 3 59 23 14 42 10 56 -11z"/>
<path d="M567 1258 c-6 -48 -30 -84 -76 -115 -39 -26 -31 -33 40 -30 66 2 102
-18 127 -71 24 -52 129 -184 164 -204 57 -35 63 -106 11 -127 -28 -11 -27 -11
6 -6 50 7 86 28 89 51 4 27 -31 70 -76 93 -21 11 -56 39 -79 63 -46 48 -128
188 -110 188 31 0 127 -70 222 -162 58 -55 109 -98 113 -93 10 11 -181 189
-264 246 -73 49 -127 115 -139 170 -10 44 -22 43 -28 -3z m53 -109 c0 -12 -7
-19 -20 -19 -19 0 -28 28 -14 43 11 11 34 -5 34 -24z"/>
<path d="M590 1150 c0 -5 5 -10 10 -10 6 0 10 5 10 10 0 6 -4 10 -10 10 -5 0
-10 -4 -10 -10z"/>
<path d="M709 1023 c60 -118 129 -173 215 -173 l41 1 -75 70 c-80 75 -186 159
-201 159 -5 0 4 -26 20 -57z m107 -72 c-22 -21 -46 0 -26 24 10 12 16 13 27 3
12 -10 12 -13 -1 -27z"/>
<path d="M930 830 c0 -5 5 -10 10 -10 6 0 10 5 10 10 0 6 -4 10 -10 10 -5 0
-10 -4 -10 -10z"/>
<path d="M945 817 c-16 -10 -18 -16 -10 -34 5 -13 13 -23 17 -23 7 0 38 53 38
65 0 8 -23 4 -45 -8z"/>
<path d="M1012 803 c-5 -15 -18 -39 -29 -53 l-20 -24 38 -28 c39 -28 153 -164
171 -203 13 -30 181 -135 194 -122 6 6 -71 113 -144 199 -84 98 -102 131 -102
189 0 45 -1 47 -32 52 -18 3 -40 8 -49 12 -12 4 -19 -2 -27 -22z"/>
<path d="M915 705 c-16 -8 -23 -14 -14 -15 8 0 24 7 35 15 23 18 18 18 -21 0z"/>
<path d="M922 688 l-44 -19 46 -29 c63 -40 157 -137 196 -203 29 -47 44 -61
109 -95 84 -45 181 -85 188 -78 2 2 -5 23 -17 46 -16 31 -32 46 -65 60 -85 36
-152 87 -188 142 -41 61 -141 174 -166 187 -10 5 -32 1 -59 -11z"/>
<path d="M858 683 c7 -3 16 -2 19 1 4 3 -2 6 -13 5 -11 0 -14 -3 -6 -6z"/>
<path d="M2750 811 c-21 -40 -13 -51 35 -51 50 0 64 15 45 49 -14 28 -65 29
-80 2z"/>
</g>
</svg>
